<svg width="135" height="125" viewBox="0 0 135 125" fill="none" xmlns="http://www.w3.org/2000/svg">
<path d="M86.2327 43.76C78.6127 43.76 70.8727 43.45 63.6327 41.44C56.3927 39.43 50.0327 35.64 44.1727 31.21C40.3627 28.32 36.8827 26.03 31.9527 26.38C27.1174 26.6374 22.4931 28.4429 18.7627 31.53C12.4327 37.04 13.4327 47.23 15.9327 54.39C19.7127 65.19 31.2227 72.68 41.0027 77.57C52.3027 83.21 64.7127 86.49 77.1627 88.38C88.1627 90.04 102.093 91.24 111.543 84.11C120.233 77.57 122.613 62.62 120.483 52.53C119.967 49.5479 118.381 46.8563 116.023 44.96C109.923 40.5 100.823 43.48 93.9627 43.63C91.4327 43.69 88.8327 43.75 86.2327 43.76Z" fill="#D0E4E9"/>
<path d="M67.6127 106.06C86.0424 106.06 100.983 105.129 100.983 103.98C100.983 102.831 86.0424 101.9 67.6127 101.9C49.1829 101.9 34.2427 102.831 34.2427 103.98C34.2427 105.129 49.1829 106.06 67.6127 106.06Z" fill="#D0E4E9"/>
<path d="M24.3022 54.2616L106.97 39.8189L112.469 71.2922C112.631 72.2197 112.418 73.1735 111.876 73.9439C111.335 74.7143 110.51 75.2382 109.583 75.4002L33.9089 88.621C32.9814 88.783 32.0275 88.57 31.2571 88.0288C30.4867 87.4875 29.9629 86.6624 29.8009 85.7349L24.3022 54.2616Z" fill="#F7F6F2" stroke="#167A92" stroke-linecap="round" stroke-linejoin="round"/>
<path d="M106.591 39.8861L24.7009 54.1929L25.885 60.9702L107.775 46.6635L106.591 39.8861Z" fill="#8ABAC6"/>
<path d="M58.2559 48.328L73.0321 45.7464L76.2298 64.0492C76.3261 64.6005 76.1995 65.1674 75.8778 65.6253C75.5561 66.0832 75.0656 66.3946 74.5144 66.4909L63.8854 68.3478C63.3341 68.4441 62.7672 68.3175 62.3093 67.9958C61.8514 67.6741 61.54 67.1837 61.4437 66.6324L58.2461 48.3297L58.2559 48.328Z" fill="#F7F6F2" stroke="#167A92" stroke-linecap="round" stroke-linejoin="round"/>
<path d="M31.6577 34.5504L93.4024 23.7631C96.1822 23.2775 99.0411 23.916 101.35 25.5382C103.659 27.1604 105.229 29.6334 105.715 32.4132L107.009 39.821L24.3116 54.2689L23.0157 46.8513C22.5333 44.0744 23.1723 41.2196 24.7925 38.9134C26.4127 36.6072 28.8817 35.0381 31.6577 34.5504Z" fill="#F7F6F2" stroke="#167A92" stroke-linecap="round" stroke-linejoin="round"/>
<path d="M70.0226 53.7C70.1272 54.2898 70.0668 54.8971 69.848 55.4548C69.6292 56.0124 69.2605 56.4987 68.7826 56.86L69.4326 60.37C69.4684 60.566 69.4644 60.7671 69.4211 60.9615C69.3777 61.156 69.2958 61.3397 69.1802 61.5019C69.0646 61.6642 68.9176 61.8016 68.748 61.906C68.5784 62.0104 68.3895 62.0798 68.1926 62.11C67.9969 62.146 67.796 62.143 67.6014 62.1012C67.4069 62.0593 67.2225 61.9793 67.059 61.866C66.8954 61.7526 66.7559 61.608 66.6484 61.4405C66.5409 61.273 66.4676 61.0859 66.4326 60.89L65.8226 57.38C65.2544 57.1944 64.747 56.8584 64.3544 56.4077C63.9618 55.957 63.6985 55.4083 63.5926 54.82C63.4441 53.97 63.6393 53.0958 64.1354 52.3897C64.6314 51.6836 65.3876 51.2035 66.2376 51.055C67.0877 50.9065 67.9619 51.1017 68.6679 51.5977C69.374 52.0938 69.8541 52.85 70.0026 53.7H70.0226Z" fill="#8ABAC6"/>
<path d="M61.6427 27.13C62.1342 27.13 62.5327 26.7315 62.5327 26.24C62.5327 25.7485 62.1342 25.35 61.6427 25.35C61.1512 25.35 60.7527 25.7485 60.7527 26.24C60.7527 26.7315 61.1512 27.13 61.6427 27.13Z" fill="#167A92"/>
<path d="M19.2926 26.17C19.7841 26.17 20.1826 25.7715 20.1826 25.28C20.1826 24.7885 19.7841 24.39 19.2926 24.39C18.8011 24.39 18.4026 24.7885 18.4026 25.28C18.4026 25.7715 18.8011 26.17 19.2926 26.17Z" fill="#167A92"/>
<path d="M20.5726 78.77C21.0641 78.77 21.4626 78.3715 21.4626 77.88C21.4626 77.3885 21.0641 76.99 20.5726 76.99C20.0811 76.99 19.6826 77.3885 19.6826 77.88C19.6826 78.3715 20.0811 78.77 20.5726 78.77Z" fill="#167A92"/>
<path d="M50.6826 19V22.92" stroke="#167A92" stroke-linecap="round" stroke-linejoin="round"/>
<path d="M48.7227 20.96H52.6327" stroke="#167A92" stroke-linecap="round" stroke-linejoin="round"/>
<path d="M56.0326 90.04V93.95" stroke="#167A92" stroke-linecap="round" stroke-linejoin="round"/>
<path d="M54.0826 91.99H57.9926" stroke="#167A92" stroke-linecap="round" stroke-linejoin="round"/>
<path d="M116.453 29.35V33.27" stroke="#167A92" stroke-linecap="round" stroke-linejoin="round"/>
<path d="M114.503 31.31H118.413" stroke="#167A92" stroke-linecap="round" stroke-linejoin="round"/>
</svg>
